<svg xmlns="http://www.w3.org/2000/svg" width="50.769" height="60" fill="none" viewBox="0 0 50.769 60"><g id="Group" fill="#fff" fill-rule="nonzero"><path id="Vector" d="M3.714 19.436q-1.55 0-2.632 1.081T0 23.113v15.505q0 1.551 1.082 2.632 1.08 1.082 2.632 1.082 1.55 0 2.614-1.082 1.064-1.08 1.064-2.632V23.113q0-1.515-1.082-2.596-1.081-1.08-2.596-1.081M33.57 5.516 36.13.794q.252-.47-.18-.721-.47-.217-.721.215l-2.596 4.76a17.7 17.7 0 0 0-7.248-1.515q-3.823 0-7.248 1.516L15.541.289q-.253-.433-.721-.216-.434.253-.18.72l2.56 4.723q-3.894 1.985-6.202 5.536-2.308 3.553-2.308 7.77h33.353q0-4.216-2.308-7.77Q37.428 7.5 33.57 5.516m-14.802 6.87a1.35 1.35 0 0 1-.992.415 1.3 1.3 0 0 1-.974-.415 1.38 1.38 0 0 1-.396-.992q0-.576.396-.99.398-.415.974-.415t.992.414q.414.416.415.991-.002.579-.415.992m15.198 0q-.398.415-.974.415a1.35 1.35 0 0 1-.992-.415 1.35 1.35 0 0 1-.415-.992q0-.576.415-.99t.992-.415.974.414q.396.416.396.991 0 .579-.396.992M8.834 44.134q0 1.66 1.153 2.812 1.154 1.155 2.813 1.154h2.668l.037 8.185q0 1.551 1.081 2.633Q17.668 60 19.182 60q1.55 0 2.632-1.082t1.082-2.633V48.1h4.976v8.185q0 1.551 1.081 2.633T31.585 60t2.632-1.082 1.082-2.633V48.1h2.704q1.623 0 2.777-1.153 1.153-1.153 1.153-2.812V20.119H8.834zm38.222-24.698q-1.515 0-2.596 1.063-1.083 1.066-1.082 2.614v15.505q0 1.551 1.081 2.632 1.083 1.082 2.597 1.082 1.55 0 2.632-1.082 1.08-1.08 1.081-2.632V23.113q0-1.549-1.081-2.614-1.084-1.062-2.632-1.063"/></g></svg>