<svg xmlns="http://www.w3.org/2000/svg" width="43.651" height="38.387" fill="none" viewBox="0 0 43.651 38.387"><g id="Group"><g id="Drive_4_"><path id="Vector" fill="#59c36a" fill-rule="nonzero" d="M21.786 11.158 12.727 26.87h-.026l5.247 6.398-11.772 4.939a1.34 1.34 0 0 1-.512-.486L.136 27.485c-.281-.563-.051-.998.026-1.254L14.979.64c.102-.154.256-.307.46-.435h.026l7.6 2.354z"/></g><path id="Vector" fill="#ffda2d" fill-rule="nonzero" d="m43.65 26.871-10.263 6.398-2.43-6.398-9.171-15.713L15.465.205c.179-.128.41-.205.614-.205h11.499c.256.077.768.051 1.1.64l14.819 25.59c.102.18.154.41.154.64"/><path id="Vector" fill="#fdbf00" fill-rule="nonzero" d="M28.68.64c-.333-.588-.845-.562-1.1-.639h-5.793v11.158l9.17 15.713 2.432 6.398 10.262-6.398c0-.23-.052-.46-.154-.64z"/><path id="Vector" fill="#4086f4" fill-rule="nonzero" d="M43.65 26.871c0 .23-.051.46-.128.614l-5.528 10.237c-.205.332-.69.665-1.126.665H6.79c-.205 0-.435-.077-.614-.179L12.7 26.871z"/><path id="Vector" fill="#4175df" fill-rule="nonzero" d="M21.787 38.387H36.87c.435 0 .921-.333 1.126-.665l5.528-10.237c.076-.153.128-.384.128-.614H21.787z"/></g></svg>